<svg width="24" height="17" viewBox="0 0 24 17" fill="none" xmlns="http://www.w3.org/2000/svg">
<rect width="5" height="4.90509" fill="#6D7381"/>
<rect y="11.7722" width="5" height="4.90509" fill="#6D7381"/>
<path opacity="0.5" d="M16.5 15.6962C20.6421 15.6962 24 12.4021 24 8.3386C24 4.27508 20.6421 0.980957 16.5 0.980957C12.3579 0.980957 9 4.27508 9 8.3386C9 12.4021 12.3579 15.6962 16.5 15.6962Z" fill="#6D7381"/>
<path d="M16.5 11.7722C18.433 11.7722 20 10.2349 20 8.33863C20 6.44232 18.433 4.90506 16.5 4.90506C14.567 4.90506 13 6.44232 13 8.33863C13 10.2349 14.567 11.7722 16.5 11.7722Z" fill="#6D7381"/>
<path d="M3 14.7152C3 14.7152 4 8.06609 18 8.80488" stroke="#6D7381"/>
<path d="M3 0.882911C3 0.882911 4 9.71208 18 8.73106" stroke="#6D7381"/>
</svg>
