<svg width="36" height="36" viewBox="0 0 36 36" fill="none" xmlns="http://www.w3.org/2000/svg">
<circle cx="18" cy="18" r="18" fill="#185ABC"/>
<path d="M12.205 23.18C11.445 23.18 10.775 23.01 10.195 22.67C9.615 22.33 9.175 21.84 8.875 21.2L10.225 20.54C10.595 21.3 11.255 21.68 12.205 21.68C12.785 21.68 13.25 21.51 13.6 21.17C13.96 20.82 14.14 20.185 14.14 19.265V12.5H15.7V19.475C15.7 20.175 15.595 20.78 15.385 21.29C15.175 21.79 14.89 22.175 14.53 22.445C14.18 22.705 13.81 22.89 13.42 23C13.04 23.12 12.635 23.18 12.205 23.18ZM24.6441 23L23.8041 20.585H19.5591L18.7041 23H17.0841L20.8791 12.5H22.4841L26.2641 23H24.6441ZM23.3241 19.205L22.0491 15.635C21.8691 15.145 21.7491 14.75 21.6891 14.45C21.5991 14.81 21.4791 15.205 21.3291 15.635L20.0391 19.205H23.3241Z" fill="white"/>
</svg>
