<svg width="154" height="32" viewBox="0 0 154 32" fill="none" xmlns="http://www.w3.org/2000/svg">
<g clip-path="url(#clip0)">
<path d="M43.541 5.31561V12.9968C44.3789 11.956 45.5428 11.2193 46.8501 10.9022C48.1575 10.585 49.5344 10.7054 50.765 11.2444C51.4414 11.5347 52.0267 11.9986 52.4601 12.5879C52.842 13.1148 53.1073 13.7151 53.2387 14.35C53.403 15.3441 53.4723 16.3513 53.4457 17.3582V26.2174H49.3951V18.2149C49.4508 17.203 49.3713 16.1883 49.1586 15.197C49.0058 14.793 48.7215 14.4506 48.3505 14.2234C47.9089 13.9582 47.3985 13.8262 46.882 13.8438C46.2464 13.8348 45.6212 14.0035 45.0785 14.3305C44.5325 14.6708 44.1218 15.1865 43.9155 15.7908C43.6237 16.7363 43.4971 17.7239 43.541 18.7114V26.2174H39.4905V5.31561H43.541Z" fill="#0A083B"/>
<path d="M56.6782 9.01504V5.31561H60.7288V9.01504H56.6782ZM56.6782 26.2174V11.0692H60.7288V26.2174H56.6782Z" fill="#0A083B"/>
<path d="M67.9331 26.2173H63.8333V11.0692H67.598V13.2304C68.0306 12.4457 68.6248 11.7592 69.3424 11.2152C69.8671 10.8886 70.4765 10.7195 71.0967 10.7284C72.0405 10.7352 72.9644 10.9979 73.7675 11.4878L72.506 14.9828C71.9499 14.5855 71.2893 14.3556 70.6039 14.3208C70.0806 14.3051 69.5682 14.4703 69.1552 14.7881C68.6768 15.2447 68.3532 15.8364 68.2288 16.482C67.947 18.1541 67.8479 19.8513 67.9331 21.5444V26.2173Z" fill="#0A083B"/>
<path d="M83.5046 21.3981L87.5453 22.0698C87.1114 23.4169 86.2468 24.5887 85.0814 25.4091C83.8327 26.2127 82.3624 26.6141 80.8732 26.5578C78.2122 26.5578 76.2313 25.7011 74.9599 23.978C73.9072 22.4418 73.3789 20.6135 73.4521 18.7598C73.3168 16.6161 74.0227 14.5033 75.4231 12.8602C76.0575 12.1675 76.836 11.6183 77.7052 11.2503C78.5744 10.8823 79.5139 10.7042 80.4592 10.7282C81.4705 10.6812 82.4796 10.8568 83.4136 11.2424C84.3477 11.628 85.1833 12.2138 85.86 12.9576C87.174 14.4503 87.8048 16.7219 87.7522 19.7723H77.6012C77.5652 20.7866 77.9171 21.7771 78.5867 22.5469C78.884 22.8633 79.246 23.1138 79.6487 23.2816C80.0513 23.4495 80.4855 23.5308 80.9224 23.5204C81.5024 23.5383 82.0705 23.3558 82.5289 23.0044C83.0089 22.577 83.3487 22.0176 83.5046 21.3981ZM83.7017 17.3482C83.7416 16.3851 83.4186 15.4416 82.795 14.7002C82.5351 14.4177 82.2188 14.1914 81.866 14.0355C81.5131 13.8797 81.1315 13.7978 80.745 13.7948C80.3289 13.788 79.9163 13.8716 79.5364 14.0399C79.1566 14.2081 78.819 14.4568 78.5473 14.7684C77.9439 15.4987 77.6413 16.4268 77.6997 17.3677L83.7017 17.3482Z" fill="#0A083B"/>
<path d="M104.24 26.2173H100.456V23.988C99.8892 24.8065 99.1277 25.4751 98.2383 25.935C97.4392 26.3416 96.5551 26.5583 95.6562 26.5678C94.7918 26.569 93.9379 26.381 93.1558 26.0174C92.3736 25.6538 91.6827 25.1237 91.1326 24.465C89.7982 22.8135 89.1278 20.7334 89.2502 18.6238C89.1026 16.5191 89.7564 14.4358 91.0833 12.7826C91.6607 12.135 92.3745 11.6199 93.1747 11.2735C93.9748 10.9271 94.842 10.7576 95.7154 10.7771C96.569 10.7784 97.4115 10.9689 98.1808 11.3345C98.95 11.7001 99.6264 12.2316 100.16 12.8897V5.31561H104.221L104.24 26.2173ZM93.3994 18.3123C93.3112 19.5223 93.5457 20.7341 94.0794 21.8267C94.3508 22.3096 94.7501 22.7106 95.2344 22.9866C95.7187 23.2627 96.2699 23.4036 96.829 23.3941C97.2905 23.3945 97.7457 23.2882 98.1581 23.0836C98.5706 22.879 98.9288 22.582 99.2042 22.2161C99.9366 21.1936 100.285 19.9507 100.19 18.7017C100.299 17.3752 99.9517 16.0511 99.2042 14.9438C98.9198 14.5753 98.5507 14.279 98.1274 14.0792C97.7041 13.8795 97.2388 13.7821 96.7699 13.7951C96.3047 13.79 95.8444 13.89 95.4242 14.0874C95.0041 14.2848 94.6351 14.5744 94.3455 14.9341C93.638 15.915 93.3062 17.1122 93.4092 18.3123H93.3994Z" fill="#0A083B"/>
<path d="M111.238 26.2173H107.177V11.0691H110.952V13.2304C111.381 12.4466 111.972 11.7602 112.686 11.2152C113.211 10.8896 113.821 10.7206 114.441 10.7284C115.385 10.7337 116.309 10.9965 117.111 11.4878L115.86 14.9827C115.3 14.5852 114.636 14.3554 113.948 14.3207C113.428 14.3065 112.919 14.4717 112.509 14.788C112.012 15.2315 111.668 15.8168 111.523 16.4625C111.229 18.1398 111.116 19.8435 111.188 21.5444L111.238 26.2173Z" fill="#0A083B"/>
<path d="M117.969 9.01504V5.31561H122.029V9.01504H117.969ZM117.969 26.2174V11.0692H122.029V26.2174H117.969Z" fill="#0A083B"/>
<path d="M129.519 26.2174L123.34 11.0693H127.597L130.485 18.7991L131.323 21.379C131.54 20.7267 131.678 20.2984 131.737 20.0842C131.875 19.6558 132.013 19.2275 132.17 18.7991L135.127 11.0693H139.296L133.166 26.2174H129.519Z" fill="#0A083B"/>
<path d="M149.733 21.3984L153.773 22.0702C153.343 23.4162 152.482 24.588 151.319 25.4094C150.067 26.2132 148.594 26.6145 147.101 26.5582C144.44 26.5582 142.469 25.6982 141.188 23.9783C140.128 22.445 139.596 20.6154 139.67 18.7602C139.535 16.6164 140.241 14.5036 141.641 12.8606C142.276 12.1678 143.054 11.6186 143.923 11.2506C144.793 10.8826 145.732 10.7045 146.677 10.7285C147.689 10.6801 148.698 10.8551 149.633 11.2408C150.567 11.6265 151.402 12.2131 152.078 12.9579C153.392 14.4507 154.023 16.7222 153.97 19.7726H143.819C143.783 20.7869 144.135 21.7775 144.805 22.5472C145.101 22.8652 145.463 23.1166 145.866 23.2846C146.269 23.4525 146.704 23.5331 147.141 23.5207C147.718 23.5388 148.283 23.3562 148.737 23.0048C149.227 22.5824 149.575 22.0218 149.733 21.3984ZM149.969 17.3485C150.006 16.3842 149.68 15.4405 149.053 14.7005C148.786 14.4102 148.461 14.1793 148.097 14.0231C147.733 13.867 147.34 13.7893 146.944 13.7951C146.529 13.7884 146.118 13.8721 145.74 14.0404C145.361 14.2087 145.025 14.4574 144.756 14.7687C144.144 15.4952 143.838 16.4252 143.898 17.368L149.969 17.3485Z" fill="#0A083B"/>
<path d="M17.7988 5.08194C19.6456 6.23655 21.1396 7.86586 22.1205 9.79524C23.1015 11.7246 23.5324 13.8813 23.3671 16.0342C23.357 17.5442 22.8589 19.0116 21.9454 20.2225C21.0319 21.4333 19.7507 22.3242 18.2887 22.7654C16.8267 23.2066 15.2602 23.175 13.8177 22.6752C12.3752 22.1753 11.1319 21.2334 10.2693 19.9867C11.4158 22.9424 13.5464 25.4246 16.3106 27.0254C19.1206 26.9936 21.8152 25.9164 23.8566 24.0087C25.8981 22.1009 27.1362 19.503 27.3241 16.7332C27.5119 13.9635 26.6356 11.2256 24.87 9.06594C23.1044 6.90628 20.5794 5.48365 17.7988 5.08194Z" fill="#02C6F1"/>
<path d="M9.0275 15.9465C9.03306 14.4119 9.54414 12.9207 10.4835 11.6983C11.4229 10.4759 12.7395 9.58881 14.2344 9.17098C15.7294 8.75314 17.3213 8.82731 18.7698 9.38227C20.2183 9.93723 21.4445 10.9428 22.2633 12.2471C21.8083 10.6743 21.0241 9.21339 19.9613 7.95897C18.8985 6.70455 17.5809 5.68458 16.0938 4.96509C13.2649 4.997 10.5537 6.08848 8.50802 8.01895C6.46238 9.94943 5.23482 12.575 5.07338 15.3651C4.91195 18.1552 5.82867 20.9018 7.63833 23.0499C9.44798 25.1981 12.0156 26.5876 14.8225 26.9377C8.14051 22.0603 8.94866 16.4041 9.0275 15.9465Z" fill="#02C6F1"/>
<path d="M16.1885 1.18626e-05C12.9836 1.24483e-05 9.85066 0.938928 7.186 2.698C4.52134 4.45706 2.44467 6.95726 1.21865 9.88233C-0.00736615 12.8074 -0.327648 16.0259 0.298317 19.1309C0.924283 22.2358 2.46837 25.0875 4.73528 27.3255C7.00219 29.5634 9.89007 31.087 13.0336 31.7034C16.1772 32.3199 19.4353 32.0015 22.3957 30.7887C25.3561 29.5758 27.8858 27.5229 29.6649 24.8896C31.4441 22.2564 32.3927 19.161 32.3907 15.9951C32.392 13.8935 31.9738 11.8121 31.1599 9.87031C30.346 7.92847 29.1524 6.16424 27.6475 4.67858C26.1426 3.19291 24.3559 2.01497 22.3896 1.21216C20.4233 0.409359 18.3161 -0.00254844 16.1885 1.18626e-05ZM16.1885 27.7944C13.8261 27.7944 11.5167 27.1023 9.55237 25.8058C7.58808 24.5093 6.05709 22.6665 5.15303 20.5105C4.24896 18.3545 4.01242 15.9821 4.47331 13.6932C4.93419 11.4044 6.07182 9.30199 7.74231 7.65184C9.41281 6.00169 11.5412 4.87793 13.8582 4.42265C16.1752 3.96738 18.5769 4.20104 20.7595 5.0941C22.9421 5.98715 24.8077 7.49948 26.1202 9.43985C27.4327 11.3802 28.1332 13.6615 28.1332 15.9951C28.128 19.1229 26.8679 22.1211 24.6289 24.3328C22.39 26.5444 19.3548 27.7892 16.1885 27.7944Z" fill="#2C5AF6"/>
</g>
<defs>
<clipPath id="clip0">
<rect width="154" height="32" fill="white"/>
</clipPath>
</defs>
</svg>
