<svg width="20" height="20" viewBox="0 0 20 20" fill="none" xmlns="http://www.w3.org/2000/svg">
<path fill-rule="evenodd" clip-rule="evenodd" d="M2 0C0.895431 0 0 0.895431 0 2V18C0 19.1046 0.895431 20 2 20H18C19.1046 20 20 19.1046 20 18V2C20 0.895431 19.1046 0 18 0H2ZM6.71456 2.85696C6.16228 2.85696 5.71456 3.30468 5.71456 3.85696V16.1427C5.71456 16.695 6.16228 17.1427 6.71456 17.1427H7.5717C8.12399 17.1427 8.5717 16.695 8.5717 16.1427V3.85696C8.5717 3.30467 8.12399 2.85696 7.5717 2.85696H6.71456Z" fill="#6D7381"/>
</svg>
